<?xml version="1.0" standalone="no"?>
<!DOCTYPE svg PUBLIC "-//W3C//DTD SVG 20010904//EN"
 "http://www.w3.org/TR/2001/REC-SVG-20010904/DTD/svg10.dtd">
<svg version="1.0" xmlns="http://www.w3.org/2000/svg"
 width="121.000000pt" height="121.000000pt" viewBox="0 0 121.000000 121.000000"
 preserveAspectRatio="xMidYMid meet">
<metadata>
Created by potrace 1.14, written by Peter Selinger 2001-2017
</metadata>
<g transform="translate(0.000000,121.000000) scale(0.100000,-0.100000)"
fill="#000000" stroke="none">
<path d="M437 1126 c-64 -19 -113 -58 -128 -103 -27 -83 -6 -225 39 -266 21
-19 59 -12 65 12 4 12 5 11 6 -5 2 -43 -55 -60 -91 -27 -19 17 -20 16 -39 -7
-10 -14 -29 -50 -40 -80 -29 -74 -32 -221 -6 -298 20 -56 23 -58 60 -41 l24
11 -17 46 c-21 56 -26 174 -10 232 15 57 24 44 21 -33 -2 -69 11 -143 35 -194
l16 -32 76 41 c126 68 311 181 409 251 l93 65 -21 26 c-19 24 -22 25 -42 11
-32 -22 -64 -18 -83 10 -9 14 -14 28 -10 32 3 3 6 1 6 -5 0 -16 36 -33 55 -26
30 12 58 85 63 166 6 108 -17 156 -96 195 -53 26 -67 28 -197 30 -95 2 -155
-2 -188 -11z m173 -111 c47 0 109 3 137 8 49 7 54 5 69 -18 19 -30 24 -87 12
-135 -14 -50 -20 -53 -76 -37 -63 19 -220 20 -281 1 -25 -7 -51 -14 -57 -14
-17 0 -37 85 -31 132 8 61 36 81 96 71 25 -4 84 -8 131 -8z"/>
<path d="M1033 824 c-51 -21 -74 -34 -60 -34 3 0 18 5 34 11 43 17 90 22 98 9
10 -16 -86 -107 -200 -188 -263 -187 -694 -412 -790 -412 -14 0 -25 3 -25 8 0
12 32 55 55 74 11 10 16 17 12 18 -5 0 -33 -23 -63 -51 -41 -39 -54 -59 -54
-80 0 -27 3 -29 38 -29 58 0 187 45 335 118 141 70 158 74 79 21 -26 -18 -49
-34 -51 -36 -3 -2 4 -10 15 -18 14 -11 15 -14 4 -15 -8 0 -21 4 -29 9 -9 6
-26 3 -48 -7 -34 -16 -42 -28 -20 -30 6 0 40 -7 75 -15 116 -26 343 -14 431
23 35 14 85 92 106 163 17 59 26 171 16 200 -6 16 -9 16 -41 -2 -19 -10 -46
-21 -60 -25 -22 -6 -23 -6 -6 5 10 6 26 17 35 25 9 7 43 33 76 57 33 25 86 71
118 103 56 56 76 92 62 114 -10 17 -81 8 -142 -16z"/>
<path d="M400 136 c45 -46 292 -59 383 -18 26 11 47 23 47 26 0 5 -32 2 -90
-9 -70 -13 -275 -6 -335 11 -18 6 -18 5 -5 -10z"/>
</g>
</svg>
